<svg width="34" height="33" viewBox="0 0 34 33" fill="none" xmlns="http://www.w3.org/2000/svg">
<path d="M16.9641 8.33014C17.3351 8.97273 18.5239 9.56579 19.6315 10.0002C21.0576 10.5624 22.5684 10.8991 24.0998 10.9376C25.248 10.9664 26.5644 10.8703 27.3923 10.3923M27.3923 10.3923C26.5644 10.8703 25.8222 11.9628 25.2738 12.971C24.5419 14.3174 24.0781 15.7941 23.851 17.3086C23.6739 18.4858 23.5941 19.8136 23.9641 20.4545M27.3923 10.3923L6.60767 22.3923" stroke="#F24822"/>
<path d="M16.9641 8.33014C17.3351 8.97273 18.5239 9.56579 19.6315 10.0002C21.0576 10.5624 22.5684 10.8991 24.0998 10.9376C25.248 10.9664 26.5644 10.8703 27.3923 10.3923M27.3923 10.3923C26.5644 10.8703 25.8222 11.9628 25.2738 12.971C24.5419 14.3174 24.0781 15.7941 23.851 17.3086C23.6739 18.4858 23.5941 19.8136 23.9641 20.4545M27.3923 10.3923L6.60767 22.3923" stroke="url(#paint0_linear_10_215)"/>
<defs>
<linearGradient id="paint0_linear_10_215" x1="6.60767" y1="22.3923" x2="27.3923" y2="10.3923" gradientUnits="userSpaceOnUse">
<stop stop-color="#BF64E7"/>
<stop offset="1" stop-color="#4E2EF5"/>
</linearGradient>
</defs>
</svg>
